<svg xmlns="http://www.w3.org/2000/svg" viewBox="0 0 350.8 623.97"><path d="M350.54,177.09A19.52,19.52,0,0,0,331,157.66H100.17a19.5,19.5,0,0,0-19.5,19.41v1.36a20,20,0,0,0,.11,2.2V405.05A20.19,20.19,0,0,0,101,425.24H229.28v40.81H97.55a55.61,55.61,0,0,1-40.83-17,55.65,55.65,0,0,1-17-40.82V97.55q0-23.85,17-40.83a55.69,55.69,0,0,1,40.83-17H252.9q23.84,0,40.82,17t17,40.83a19.51,19.51,0,0,0,19.51,19.5h.72a19.5,19.5,0,0,0,19.51-19.5q0-40.47-28.9-68.65Q293.36,0,252.9,0H97.55Q57.07,0,28.18,28.9,0,57.08,0,97.55v310.7Q0,448,28.18,477.61q29.63,28.18,69.37,28.18H229.28v98a20.2,20.2,0,0,0,20.2,20.2h20.19V504.5q29.73-4.75,51.87-26.89a94.53,94.53,0,0,0,28.9-69.36C350.6,387.38,351.1,299.73,350.54,177.09ZM310.7,408.25a55.63,55.63,0,0,1-17,40.82,56.27,56.27,0,0,1-24.05,14.63V255.64a20.19,20.19,0,0,0-20.19-20.19h-20.2v129a20.55,20.55,0,0,1-.63,5.05c-.17.64-.37,1.28-.59,1.89a19.46,19.46,0,0,1-.77,1.82,20.19,20.19,0,0,1-18.2,11.43H141.35a20.2,20.2,0,0,1-18.2-11.43c-.28-.59-.54-1.2-.77-1.82a19.7,19.7,0,0,1-.58-1.89,20.08,20.08,0,0,1-.64-5.05V295.58h0V198l169.39-.28a19.52,19.52,0,0,1,19.54,19.39C310.77,319.2,310.8,392.52,310.7,408.25Z" fill="#ec4c56"/></svg>